<mxfile modified="2023-10-31T14:17:48.386Z" host="app.diagrams.net" agent="Mozilla/5.0 (Windows NT 10.0; Win64; x64) AppleWebKit/537.36 (KHTML, like Gecko) Chrome/118.0.0.0 Safari/537.36" etag="m4ehn_26tEnwGnmHTjLj" version="22.0.8" type="github">
  <diagram id="Ht1M8jgEwFfnCIfOTk4-" name="Page-1">
    <mxGraphModel dx="1719" dy="1736" grid="1" gridSize="10" guides="1" tooltips="1" connect="1" arrows="1" fold="1" page="1" pageScale="1" pageWidth="1169" pageHeight="827" math="0" shadow="0">
      <root>
        <mxCell id="0" />
        <mxCell id="1" parent="0" />
        <mxCell id="UEzPUAAOIrF-is8g5C7q-195" style="edgeStyle=orthogonalEdgeStyle;rounded=0;orthogonalLoop=1;jettySize=auto;html=1;startArrow=none;startFill=0;endArrow=open;endFill=0;strokeColor=#808080;strokeWidth=2;" parent="1" edge="1">
          <mxGeometry relative="1" as="geometry">
            <mxPoint x="238.99336087341385" y="-511" as="sourcePoint" />
            <mxPoint x="468" y="-671.5" as="targetPoint" />
          </mxGeometry>
        </mxCell>
        <mxCell id="UEzPUAAOIrF-is8g5C7q-202" style="edgeStyle=orthogonalEdgeStyle;rounded=0;orthogonalLoop=1;jettySize=auto;html=1;startArrow=none;startFill=0;endArrow=open;endFill=0;strokeColor=#808080;strokeWidth=2;" parent="1" edge="1">
          <mxGeometry relative="1" as="geometry">
            <Array as="points">
              <mxPoint x="739" y="-369.5" />
              <mxPoint x="329" y="-369.5" />
            </Array>
            <mxPoint x="739" y="-481.5" as="sourcePoint" />
            <mxPoint x="329" y="-349.5" as="targetPoint" />
          </mxGeometry>
        </mxCell>
        <mxCell id="UEzPUAAOIrF-is8g5C7q-204" style="edgeStyle=orthogonalEdgeStyle;rounded=0;orthogonalLoop=1;jettySize=auto;html=1;entryX=0.5;entryY=0;entryDx=0;entryDy=0;startArrow=none;startFill=0;endArrow=open;endFill=0;strokeColor=#808080;strokeWidth=2;" parent="1" edge="1">
          <mxGeometry relative="1" as="geometry">
            <Array as="points">
              <mxPoint x="739" y="-369.5" />
              <mxPoint x="835" y="-369.5" />
            </Array>
            <mxPoint x="739" y="-481.5" as="sourcePoint" />
            <mxPoint x="835" y="-349.5" as="targetPoint" />
          </mxGeometry>
        </mxCell>
        <mxCell id="trIx7C1fxaMWtldnHz-Z-1" value="&lt;font color=&quot;#0000ff&quot;&gt;VPC 10.32.0.0/16&lt;br&gt;us-east-1&lt;br&gt;&lt;/font&gt;" style="points=[[0,0],[0.25,0],[0.5,0],[0.75,0],[1,0],[1,0.25],[1,0.5],[1,0.75],[1,1],[0.75,1],[0.5,1],[0.25,1],[0,1],[0,0.75],[0,0.5],[0,0.25]];outlineConnect=0;gradientColor=none;html=1;whiteSpace=wrap;fontSize=12;fontStyle=0;container=1;pointerEvents=0;collapsible=0;recursiveResize=0;shape=mxgraph.aws4.group;grIcon=mxgraph.aws4.group_vpc;strokeColor=#248814;fillColor=none;verticalAlign=top;align=left;spacingLeft=30;fontColor=#AAB7B8;dashed=0;" vertex="1" parent="1">
          <mxGeometry x="40" y="-801.5" width="1070" height="681.5" as="geometry" />
        </mxCell>
        <mxCell id="trIx7C1fxaMWtldnHz-Z-2" value="Availability zone us-east-1a" style="sketch=0;outlineConnect=0;gradientColor=none;html=1;whiteSpace=wrap;fontSize=12;fontStyle=0;shape=mxgraph.aws4.group;grIcon=mxgraph.aws4.group_availability_zone;strokeColor=#545B64;fillColor=none;verticalAlign=top;align=left;spacingLeft=30;fontColor=#545B64;dashed=1;" vertex="1" parent="trIx7C1fxaMWtldnHz-Z-1">
          <mxGeometry x="21" y="56.75" width="329" height="603.25" as="geometry" />
        </mxCell>
        <mxCell id="trIx7C1fxaMWtldnHz-Z-3" value="Availability zone us-east-1b" style="sketch=0;outlineConnect=0;gradientColor=none;html=1;whiteSpace=wrap;fontSize=12;fontStyle=0;shape=mxgraph.aws4.group;grIcon=mxgraph.aws4.group_availability_zone;strokeColor=#545B64;fillColor=none;verticalAlign=top;align=left;spacingLeft=30;fontColor=#545B64;dashed=1;" vertex="1" parent="trIx7C1fxaMWtldnHz-Z-1">
          <mxGeometry x="365.25" y="56.75" width="339.5" height="603.25" as="geometry" />
        </mxCell>
        <mxCell id="trIx7C1fxaMWtldnHz-Z-4" value="Availability zone us-east-1c" style="sketch=0;outlineConnect=0;gradientColor=none;html=1;whiteSpace=wrap;fontSize=12;fontStyle=0;shape=mxgraph.aws4.group;grIcon=mxgraph.aws4.group_availability_zone;strokeColor=#545B64;fillColor=none;verticalAlign=top;align=left;spacingLeft=30;fontColor=#545B64;dashed=1;" vertex="1" parent="trIx7C1fxaMWtldnHz-Z-1">
          <mxGeometry x="710" y="56.75" width="349" height="603.25" as="geometry" />
        </mxCell>
        <mxCell id="trIx7C1fxaMWtldnHz-Z-6" value="Public subnet A&lt;br&gt;10.32.1.0/24&lt;br&gt;us-east-1a" style="points=[[0,0],[0.25,0],[0.5,0],[0.75,0],[1,0],[1,0.25],[1,0.5],[1,0.75],[1,1],[0.75,1],[0.5,1],[0.25,1],[0,1],[0,0.75],[0,0.5],[0,0.25]];outlineConnect=0;gradientColor=none;html=1;whiteSpace=wrap;fontSize=12;fontStyle=0;container=1;pointerEvents=0;collapsible=0;recursiveResize=0;shape=mxgraph.aws4.group;grIcon=mxgraph.aws4.group_security_group;grStroke=0;strokeColor=#248814;fillColor=#E9F3E6;verticalAlign=top;align=left;spacingLeft=30;fontColor=#248814;dashed=0;" vertex="1" parent="trIx7C1fxaMWtldnHz-Z-1">
          <mxGeometry x="40" y="101.5" width="310" height="168.5" as="geometry" />
        </mxCell>
        <mxCell id="trIx7C1fxaMWtldnHz-Z-20" value="" style="outlineConnect=0;dashed=0;verticalLabelPosition=bottom;verticalAlign=top;align=center;html=1;shape=mxgraph.aws3.route_table;fillColor=#F58536;gradientColor=none;" vertex="1" parent="trIx7C1fxaMWtldnHz-Z-6">
          <mxGeometry x="150" y="-20" width="50" height="40" as="geometry" />
        </mxCell>
        <mxCell id="trIx7C1fxaMWtldnHz-Z-22" value="" style="sketch=0;outlineConnect=0;fontColor=#232F3E;gradientColor=none;fillColor=#ED7100;strokeColor=none;dashed=0;verticalLabelPosition=bottom;verticalAlign=top;align=center;html=1;fontSize=12;fontStyle=0;aspect=fixed;pointerEvents=1;shape=mxgraph.aws4.elastic_ip_address;" vertex="1" parent="trIx7C1fxaMWtldnHz-Z-6">
          <mxGeometry x="262" y="30" width="48" height="20" as="geometry" />
        </mxCell>
        <mxCell id="trIx7C1fxaMWtldnHz-Z-8" value="Public subnet B&lt;br&gt;10.32.2.0/24&lt;br&gt;us-east-1b" style="points=[[0,0],[0.25,0],[0.5,0],[0.75,0],[1,0],[1,0.25],[1,0.5],[1,0.75],[1,1],[0.75,1],[0.5,1],[0.25,1],[0,1],[0,0.75],[0,0.5],[0,0.25]];outlineConnect=0;gradientColor=none;html=1;whiteSpace=wrap;fontSize=12;fontStyle=0;container=1;pointerEvents=0;collapsible=0;recursiveResize=0;shape=mxgraph.aws4.group;grIcon=mxgraph.aws4.group_security_group;grStroke=0;strokeColor=#248814;fillColor=#E9F3E6;verticalAlign=top;align=left;spacingLeft=30;fontColor=#248814;dashed=0;" vertex="1" parent="trIx7C1fxaMWtldnHz-Z-1">
          <mxGeometry x="380" y="101.5" width="308" height="168.5" as="geometry" />
        </mxCell>
        <mxCell id="trIx7C1fxaMWtldnHz-Z-24" value="" style="sketch=0;outlineConnect=0;fontColor=#232F3E;gradientColor=none;fillColor=#ED7100;strokeColor=none;dashed=0;verticalLabelPosition=bottom;verticalAlign=top;align=center;html=1;fontSize=12;fontStyle=0;aspect=fixed;pointerEvents=1;shape=mxgraph.aws4.elastic_ip_address;" vertex="1" parent="trIx7C1fxaMWtldnHz-Z-8">
          <mxGeometry x="260" y="30" width="48" height="20" as="geometry" />
        </mxCell>
        <mxCell id="trIx7C1fxaMWtldnHz-Z-9" value="Public subnet B&lt;br&gt;10.32.3.0/24&lt;br&gt;us-east-1c" style="points=[[0,0],[0.25,0],[0.5,0],[0.75,0],[1,0],[1,0.25],[1,0.5],[1,0.75],[1,1],[0.75,1],[0.5,1],[0.25,1],[0,1],[0,0.75],[0,0.5],[0,0.25]];outlineConnect=0;gradientColor=none;html=1;whiteSpace=wrap;fontSize=12;fontStyle=0;container=1;pointerEvents=0;collapsible=0;recursiveResize=0;shape=mxgraph.aws4.group;grIcon=mxgraph.aws4.group_security_group;grStroke=0;strokeColor=#248814;fillColor=#E9F3E6;verticalAlign=top;align=left;spacingLeft=30;fontColor=#248814;dashed=0;" vertex="1" parent="trIx7C1fxaMWtldnHz-Z-1">
          <mxGeometry x="739.5" y="101.5" width="290" height="168.5" as="geometry" />
        </mxCell>
        <mxCell id="trIx7C1fxaMWtldnHz-Z-19" value="" style="outlineConnect=0;dashed=0;verticalLabelPosition=bottom;verticalAlign=top;align=center;html=1;shape=mxgraph.aws3.route_table;fillColor=#F58536;gradientColor=none;" vertex="1" parent="trIx7C1fxaMWtldnHz-Z-9">
          <mxGeometry x="160.5" y="-20" width="50" height="40" as="geometry" />
        </mxCell>
        <mxCell id="trIx7C1fxaMWtldnHz-Z-16" value="" style="outlineConnect=0;dashed=0;verticalLabelPosition=bottom;verticalAlign=top;align=center;html=1;shape=mxgraph.aws3.vpc_nat_gateway;fillColor=#F58534;gradientColor=none;" vertex="1" parent="trIx7C1fxaMWtldnHz-Z-9">
          <mxGeometry x="210.5" y="40" width="49" height="48.5" as="geometry" />
        </mxCell>
        <mxCell id="trIx7C1fxaMWtldnHz-Z-10" value="Private subnet A&lt;br&gt;10.32.11.0/24&lt;br&gt;us-east-1a" style="points=[[0,0],[0.25,0],[0.5,0],[0.75,0],[1,0],[1,0.25],[1,0.5],[1,0.75],[1,1],[0.75,1],[0.5,1],[0.25,1],[0,1],[0,0.75],[0,0.5],[0,0.25]];outlineConnect=0;html=1;whiteSpace=wrap;fontSize=12;fontStyle=0;container=1;pointerEvents=0;collapsible=0;recursiveResize=0;shape=mxgraph.aws4.group;grIcon=mxgraph.aws4.group_security_group;grStroke=0;strokeColor=#0000FF;fillColor=#dae8fc;verticalAlign=top;align=left;spacingLeft=30;dashed=0;" vertex="1" parent="trIx7C1fxaMWtldnHz-Z-1">
          <mxGeometry x="40" y="294.5" width="290" height="195.5" as="geometry" />
        </mxCell>
        <mxCell id="trIx7C1fxaMWtldnHz-Z-11" value="Private subnet A&lt;br&gt;10.32.11.0/24&lt;br&gt;us-east-1a" style="points=[[0,0],[0.25,0],[0.5,0],[0.75,0],[1,0],[1,0.25],[1,0.5],[1,0.75],[1,1],[0.75,1],[0.5,1],[0.25,1],[0,1],[0,0.75],[0,0.5],[0,0.25]];outlineConnect=0;html=1;whiteSpace=wrap;fontSize=12;fontStyle=0;container=1;pointerEvents=0;collapsible=0;recursiveResize=0;shape=mxgraph.aws4.group;grIcon=mxgraph.aws4.group_security_group;grStroke=0;strokeColor=#0000FF;fillColor=#dae8fc;verticalAlign=top;align=left;spacingLeft=30;dashed=0;" vertex="1" parent="trIx7C1fxaMWtldnHz-Z-1">
          <mxGeometry x="380" y="290.5" width="290" height="195.5" as="geometry" />
        </mxCell>
        <mxCell id="trIx7C1fxaMWtldnHz-Z-17" value="" style="outlineConnect=0;dashed=0;verticalLabelPosition=bottom;verticalAlign=top;align=center;html=1;shape=mxgraph.aws3.route_table;fillColor=#F58536;gradientColor=none;" vertex="1" parent="trIx7C1fxaMWtldnHz-Z-11">
          <mxGeometry x="165" y="-9" width="50" height="40" as="geometry" />
        </mxCell>
        <mxCell id="trIx7C1fxaMWtldnHz-Z-12" value="Private subnet A&lt;br&gt;10.32.11.0/24&lt;br&gt;us-east-1a" style="points=[[0,0],[0.25,0],[0.5,0],[0.75,0],[1,0],[1,0.25],[1,0.5],[1,0.75],[1,1],[0.75,1],[0.5,1],[0.25,1],[0,1],[0,0.75],[0,0.5],[0,0.25]];outlineConnect=0;html=1;whiteSpace=wrap;fontSize=12;fontStyle=0;container=1;pointerEvents=0;collapsible=0;recursiveResize=0;shape=mxgraph.aws4.group;grIcon=mxgraph.aws4.group_security_group;grStroke=0;strokeColor=#0000FF;fillColor=#dae8fc;verticalAlign=top;align=left;spacingLeft=30;dashed=0;" vertex="1" parent="trIx7C1fxaMWtldnHz-Z-1">
          <mxGeometry x="739.5" y="290.5" width="290" height="195.5" as="geometry" />
        </mxCell>
        <mxCell id="trIx7C1fxaMWtldnHz-Z-13" value="" style="outlineConnect=0;dashed=0;verticalLabelPosition=bottom;verticalAlign=top;align=center;html=1;shape=mxgraph.aws3.route_table;fillColor=#F58536;gradientColor=none;" vertex="1" parent="trIx7C1fxaMWtldnHz-Z-1">
          <mxGeometry x="190" y="281.5" width="50" height="40" as="geometry" />
        </mxCell>
        <mxCell id="trIx7C1fxaMWtldnHz-Z-14" value="" style="outlineConnect=0;dashed=0;verticalLabelPosition=bottom;verticalAlign=top;align=center;html=1;shape=mxgraph.aws3.vpc_nat_gateway;fillColor=#F58534;gradientColor=none;" vertex="1" parent="trIx7C1fxaMWtldnHz-Z-1">
          <mxGeometry x="260" y="141.5" width="49" height="48.5" as="geometry" />
        </mxCell>
        <mxCell id="trIx7C1fxaMWtldnHz-Z-18" value="`" style="outlineConnect=0;dashed=0;verticalLabelPosition=bottom;verticalAlign=top;align=center;html=1;shape=mxgraph.aws3.route_table;fillColor=#F58536;gradientColor=none;" vertex="1" parent="trIx7C1fxaMWtldnHz-Z-1">
          <mxGeometry x="910" y="281.5" width="50" height="40" as="geometry" />
        </mxCell>
        <mxCell id="trIx7C1fxaMWtldnHz-Z-15" value="" style="outlineConnect=0;dashed=0;verticalLabelPosition=bottom;verticalAlign=top;align=center;html=1;shape=mxgraph.aws3.vpc_nat_gateway;fillColor=#F58534;gradientColor=none;" vertex="1" parent="trIx7C1fxaMWtldnHz-Z-1">
          <mxGeometry x="600" y="141.5" width="49" height="48.5" as="geometry" />
        </mxCell>
        <mxCell id="trIx7C1fxaMWtldnHz-Z-21" value="" style="outlineConnect=0;dashed=0;verticalLabelPosition=bottom;verticalAlign=top;align=center;html=1;shape=mxgraph.aws3.route_table;fillColor=#F58536;gradientColor=none;" vertex="1" parent="trIx7C1fxaMWtldnHz-Z-1">
          <mxGeometry x="550" y="81.5" width="50" height="40" as="geometry" />
        </mxCell>
        <mxCell id="trIx7C1fxaMWtldnHz-Z-25" value="" style="sketch=0;outlineConnect=0;fontColor=#232F3E;gradientColor=none;fillColor=#ED7100;strokeColor=none;dashed=0;verticalLabelPosition=bottom;verticalAlign=top;align=center;html=1;fontSize=12;fontStyle=0;aspect=fixed;pointerEvents=1;shape=mxgraph.aws4.elastic_ip_address;" vertex="1" parent="trIx7C1fxaMWtldnHz-Z-1">
          <mxGeometry x="981.5" y="121.5" width="48" height="20" as="geometry" />
        </mxCell>
        <mxCell id="trIx7C1fxaMWtldnHz-Z-26" value="" style="outlineConnect=0;dashed=0;verticalLabelPosition=bottom;verticalAlign=top;align=center;html=1;shape=mxgraph.aws3.internet_gateway;fillColor=#F58536;gradientColor=none;" vertex="1" parent="1">
          <mxGeometry x="1080" y="-827" width="69" height="72" as="geometry" />
        </mxCell>
      </root>
    </mxGraphModel>
  </diagram>
</mxfile>
